<svg width="30" height="30" viewBox="0 0 30 30" fill="none" xmlns="http://www.w3.org/2000/svg">
<g clip-path="url(#clip0_1_437)">
<path d="M4.5 16.5C3.67157 16.5 3 15.8284 3 15C3 14.1716 3.67157 13.5 4.5 13.5H16.1716C17.9534 13.5 18.8457 11.3457 17.5858 10.0858L15.8109 8.31085C15.3266 7.82662 15.2066 7.08686 15.5128 6.47434C15.9985 5.50305 17.293 5.29298 18.0609 6.06085L25.5858 13.5858C26.3668 14.3668 26.3668 15.6332 25.5858 16.4142L18.0609 23.9391C17.293 24.707 15.9985 24.497 15.5128 23.5257C15.2066 22.9131 15.3266 22.1734 15.8109 21.6891L17.5858 19.9142C18.8457 18.6543 17.9534 16.5 16.1716 16.5H4.5Z" fill="#BFBFBF"/>
</g>
<defs>
<clipPath id="clip0_1_437">
<rect width="30" height="30" fill="white"/>
</clipPath>
</defs>
</svg>
