<svg width="21" height="23" viewBox="0 0 21 23" fill="none" xmlns="http://www.w3.org/2000/svg">
<path d="M18 4C18 3.30964 18.5596 2.75 19.25 2.75C19.9404 2.75 20.5 3.30964 20.5 4V20.75C20.5 21.8546 19.6046 22.75 18.5 22.75H4.25C2.175 22.75 0.5 21.075 0.5 19V4C0.5 1.925 2.175 0.25 4.25 0.25H13.5C14.6046 0.25 15.5 1.14543 15.5 2.25V15.75C15.5 16.8546 14.6046 17.75 13.5 17.75H4.25C3.5625 17.75 3 18.3125 3 19C3 19.6875 3.5625 20.25 4.25 20.25H16C17.1046 20.25 18 19.3546 18 18.25V4Z" fill="#BFBFBF"/>
</svg>
