<svg width="22" height="25" viewBox="0 0 22 25" fill="none" xmlns="http://www.w3.org/2000/svg">
<path d="M11 10.875C7.7468 10.875 6.97192 6.16477 6.90931 5.74485C6.90601 5.72272 6.90332 5.70397 6.9001 5.68183C6.51017 3.00511 7.74329 0 10.955 0C14.1703 0 15.4061 2.98397 15.029 5.65352C15.0232 5.69456 15.0177 5.73494 15.0118 5.77597C14.9296 6.35576 14.1866 10.875 11 10.875ZM8.79579 13.3215C10.1348 14.1772 11.8533 14.159 13.174 13.2753L14.0704 12.6756C14.7286 12.2351 15.5116 11.9631 16.2857 12.1306C19.3514 12.7936 21.86 15.8709 21.86 18.795V19.5811C21.86 21.3345 20.7179 22.882 19.0054 23.2587C16.9168 23.7181 13.945 24.225 11 24.225C8.0128 24.225 5.05238 23.7204 2.97877 23.2619C1.27348 22.8847 0.140015 21.3421 0.140015 19.5956V18.795C0.140015 15.7741 2.47147 12.7772 5.68218 12.1816C6.43266 12.0424 7.18678 12.2934 7.82996 12.7044L8.79579 13.3215Z" fill="#BFBFBF"/>
</svg>
