<svg width="28" height="28" viewBox="0 0 28 28" fill="none" xmlns="http://www.w3.org/2000/svg">
<path d="M12.2111 4.07771C12.9482 2.60361 15.0518 2.60361 15.7889 4.07771L18.0213 8.54263C18.3204 9.14074 18.8986 9.54982 19.5621 9.63276L23.7199 10.1525C25.3193 10.3524 26.0373 12.2652 24.9645 13.4682L21.9594 16.838C21.5552 17.2912 21.3789 17.9035 21.48 18.5023L22.344 23.6168C22.6166 25.2305 20.9413 26.4707 19.4775 25.7388L14.8944 23.4472C14.3314 23.1657 13.6686 23.1657 13.1056 23.4472L8.52888 25.7356C7.06386 26.4681 5.38769 25.2253 5.66289 23.6107L6.53304 18.5053C6.63538 17.9048 6.4585 17.2904 6.05254 16.8363L3.04262 13.4693C1.96766 12.2668 2.68516 10.3519 4.28562 10.1518L8.4379 9.63276C9.10144 9.54982 9.67963 9.14074 9.97868 8.54263L12.2111 4.07771Z" fill="#474747"/>
</svg>
