<svg width="19" height="24" viewBox="0 0 19 24" fill="none" xmlns="http://www.w3.org/2000/svg">
<path d="M14.015 3C14.5673 3 15.015 3.44772 15.015 4V11C15.015 11.5523 15.4627 12 16.015 12H17.015C17.5673 12 18.015 11.5523 18.015 11V1C18.015 0.447715 17.5673 0 17.015 0H1C0.447715 0 0 0.447715 0 1V11C0 11.5523 0.447715 12 1 12H2.015C2.56729 12 3.015 11.5523 3.015 11V4C3.015 3.44772 3.46272 3 4.015 3H14.015ZM11.015 6C11.5673 6 12.015 6.44771 12.015 7V14C12.015 14.5523 12.4627 15 13.015 15H14.38C15.2278 15 15.691 15.9889 15.1482 16.6402L9.78322 23.0781C9.38343 23.5579 8.64658 23.5579 8.24678 23.0781L2.88182 16.6402C2.33905 15.9889 2.8022 15 3.65004 15H5.015C5.56729 15 6.015 14.5523 6.015 14V7C6.015 6.44772 6.46272 6 7.015 6H11.015Z" fill="#BFBFBF"/>
</svg>
